<?xml version="1.0" encoding="utf-8"?>
<svg xmlns="http://www.w3.org/2000/svg" xmlns:xlink="http://www.w3.org/1999/xlink" style="margin: auto; background: none; display: block; shape-rendering: auto;" width="200px" height="200px" viewBox="0 0 100 100" preserveAspectRatio="xMidYMid">
<g transform="rotate(0 50 50)">
  <rect x="47" y="24" rx="3" ry="6" width="6" height="12" fill="#d7689d">
    <animate attributeName="opacity" values="1;0" keyTimes="0;1" dur="1.1363636363636365s" begin="-1.0551948051948052s" repeatCount="indefinite"></animate>
  </rect>
</g><g transform="rotate(25.714285714285715 50 50)">
  <rect x="47" y="24" rx="3" ry="6" width="6" height="12" fill="#f3d337">
    <animate attributeName="opacity" values="1;0" keyTimes="0;1" dur="1.1363636363636365s" begin="-0.974025974025974s" repeatCount="indefinite"></animate>
  </rect>
</g><g transform="rotate(51.42857142857143 50 50)">
  <rect x="47" y="24" rx="3" ry="6" width="6" height="12" fill="#a0c443">
    <animate attributeName="opacity" values="1;0" keyTimes="0;1" dur="1.1363636363636365s" begin="-0.8928571428571428s" repeatCount="indefinite"></animate>
  </rect>
</g><g transform="rotate(77.14285714285714 50 50)">
  <rect x="47" y="24" rx="3" ry="6" width="6" height="12" fill="#66b5ae">
    <animate attributeName="opacity" values="1;0" keyTimes="0;1" dur="1.1363636363636365s" begin="-0.8116883116883117s" repeatCount="indefinite"></animate>
  </rect>
</g><g transform="rotate(102.85714285714286 50 50)">
  <rect x="47" y="24" rx="3" ry="6" width="6" height="12" fill="#5da4dc">
    <animate attributeName="opacity" values="1;0" keyTimes="0;1" dur="1.1363636363636365s" begin="-0.7305194805194805s" repeatCount="indefinite"></animate>
  </rect>
</g><g transform="rotate(128.57142857142858 50 50)">
  <rect x="47" y="24" rx="3" ry="6" width="6" height="12" fill="#40769e">
    <animate attributeName="opacity" values="1;0" keyTimes="0;1" dur="1.1363636363636365s" begin="-0.6493506493506493s" repeatCount="indefinite"></animate>
  </rect>
</g><g transform="rotate(154.28571428571428 50 50)">
  <rect x="47" y="24" rx="3" ry="6" width="6" height="12" fill="#d7689d">
    <animate attributeName="opacity" values="1;0" keyTimes="0;1" dur="1.1363636363636365s" begin="-0.5681818181818181s" repeatCount="indefinite"></animate>
  </rect>
</g><g transform="rotate(180 50 50)">
  <rect x="47" y="24" rx="3" ry="6" width="6" height="12" fill="#f3d337">
    <animate attributeName="opacity" values="1;0" keyTimes="0;1" dur="1.1363636363636365s" begin="-0.487012987012987s" repeatCount="indefinite"></animate>
  </rect>
</g><g transform="rotate(205.71428571428572 50 50)">
  <rect x="47" y="24" rx="3" ry="6" width="6" height="12" fill="#a0c443">
    <animate attributeName="opacity" values="1;0" keyTimes="0;1" dur="1.1363636363636365s" begin="-0.40584415584415584s" repeatCount="indefinite"></animate>
  </rect>
</g><g transform="rotate(231.42857142857142 50 50)">
  <rect x="47" y="24" rx="3" ry="6" width="6" height="12" fill="#66b5ae">
    <animate attributeName="opacity" values="1;0" keyTimes="0;1" dur="1.1363636363636365s" begin="-0.3246753246753247s" repeatCount="indefinite"></animate>
  </rect>
</g><g transform="rotate(257.14285714285717 50 50)">
  <rect x="47" y="24" rx="3" ry="6" width="6" height="12" fill="#5da4dc">
    <animate attributeName="opacity" values="1;0" keyTimes="0;1" dur="1.1363636363636365s" begin="-0.2435064935064935s" repeatCount="indefinite"></animate>
  </rect>
</g><g transform="rotate(282.85714285714283 50 50)">
  <rect x="47" y="24" rx="3" ry="6" width="6" height="12" fill="#40769e">
    <animate attributeName="opacity" values="1;0" keyTimes="0;1" dur="1.1363636363636365s" begin="-0.16233766233766234s" repeatCount="indefinite"></animate>
  </rect>
</g><g transform="rotate(308.57142857142856 50 50)">
  <rect x="47" y="24" rx="3" ry="6" width="6" height="12" fill="#d7689d">
    <animate attributeName="opacity" values="1;0" keyTimes="0;1" dur="1.1363636363636365s" begin="-0.08116883116883117s" repeatCount="indefinite"></animate>
  </rect>
</g><g transform="rotate(334.2857142857143 50 50)">
  <rect x="47" y="24" rx="3" ry="6" width="6" height="12" fill="#f3d337">
    <animate attributeName="opacity" values="1;0" keyTimes="0;1" dur="1.1363636363636365s" begin="0s" repeatCount="indefinite"></animate>
  </rect>
</g>
<!-- [ldio] generated by https://loading.io/ --></svg>